<svg width="386" height="194" xmlns="http://www.w3.org/2000/svg" xmlns:xlink="http://www.w3.org/1999/xlink" overflow="hidden"><defs><clipPath id="clip0"><path d="M255 71 641 71 641 265 255 265Z" fill-rule="evenodd" clip-rule="evenodd"/></clipPath><clipPath id="clip1"><path d="M311 77 361 77 361 127 311 127Z" fill-rule="evenodd" clip-rule="evenodd"/></clipPath><clipPath id="clip2"><path d="M311 77 361 77 361 128 311 128Z" fill-rule="evenodd" clip-rule="evenodd"/></clipPath><clipPath id="clip3"><path d="M311 77 361 77 361 128 311 128Z" fill-rule="evenodd" clip-rule="evenodd"/></clipPath><clipPath id="clip4"><path d="M424 193 473 193 473 243 424 243Z" fill-rule="evenodd" clip-rule="evenodd"/></clipPath><clipPath id="clip5"><path d="M424 193 473 193 473 243 424 243Z" fill-rule="evenodd" clip-rule="evenodd"/></clipPath><clipPath id="clip6"><path d="M424 193 473 193 473 243 424 243Z" fill-rule="evenodd" clip-rule="evenodd"/></clipPath></defs><g clip-path="url(#clip0)" transform="translate(-255 -71)"><path d="M392.5 132.5 392.5 217.78 411.966 217.78" stroke="#34599C" stroke-width="1.33333" stroke-miterlimit="8" fill="none" fill-rule="evenodd"/><text font-family="Calibri,Calibri_MSFontService,sans-serif" font-weight="400" font-size="19" transform="translate(367.896 107)">_archives</text><g clip-path="url(#clip1)"><g clip-path="url(#clip2)"><g clip-path="url(#clip3)"><path d="M326.052 96.2708 352.146 96.2708 352.146 93.6667C352.146 92.5208 351.208 91.5833 350.062 91.5833L334.438 91.5833 328.708 87.7812C328.344 87.5729 327.979 87.4167 327.562 87.4167L317.771 87.4167C316.625 87.4167 315.688 88.3542 315.688 89.5L315.688 115.021C315.688 115.125 322.406 98.7188 322.406 98.7188 323.031 97.2604 324.438 96.2708 326.052 96.2708Z" fill="#C0C9E4"/><path d="M356.312 100.438C356.312 99.3438 355.531 98.4583 354.438 98.3542L326.052 98.3542C325.271 98.3542 324.594 98.8229 324.281 99.5L317.25 116.583 349.021 116.583 356.104 101.375C356.26 101.062 356.312 100.75 356.312 100.438L356.312 100.438Z" fill="#C0C9E4"/></g></g></g><text font-family="Calibri,Calibri_MSFontService,sans-serif" font-weight="400" font-size="19" transform="translate(480.057 222)">archivedata.<tspan x="92.5534" y="0">txt</tspan></text><g clip-path="url(#clip4)"><g clip-path="url(#clip5)"><g clip-path="url(#clip6)"><path d="M14.2917 21.4375 34.7083 21.4375 34.7083 22.4583 14.2917 22.4583Z" fill="#C0C9E4" transform="matrix(1 0 -0 1.02041 424 193)"/><path d="M14.2917 17.3542 23.9896 17.3542 23.9896 18.375 14.2917 18.375Z" fill="#C0C9E4" transform="matrix(1 0 -0 1.02041 424 193)"/><path d="M14.2917 25.5208 34.7083 25.5208 34.7083 26.5417 14.2917 26.5417Z" fill="#C0C9E4" transform="matrix(1 0 -0 1.02041 424 193)"/><path d="M14.2917 29.6042 34.7083 29.6042 34.7083 30.625 14.2917 30.625Z" fill="#C0C9E4" transform="matrix(1 0 -0 1.02041 424 193)"/><path d="M14.2917 33.6875 34.7083 33.6875 34.7083 34.7083 14.2917 34.7083Z" fill="#C0C9E4" transform="matrix(1 0 -0 1.02041 424 193)"/><path d="M14.2917 37.7708 34.7083 37.7708 34.7083 38.7917 14.2917 38.7917Z" fill="#C0C9E4" transform="matrix(1 0 -0 1.02041 424 193)"/><path d="M9.1875 4.08333 9.1875 44.9167 39.8125 44.9167 39.8125 15.1012 28.7946 4.08333ZM29.1024 5.83457 38.0613 14.7934C38.0633 14.7954 38.0632 14.7987 38.0612 14.8006 38.0602 14.8015 38.059 14.8021 38.0577 14.8021L29.0938 14.8021 29.0938 5.83815C29.0938 5.83534 29.0961 5.83309 29.0989 5.83309 29.1002 5.83314 29.1015 5.83365 29.1024 5.83457ZM10.2083 43.8958 10.2083 5.10417 28.0729 5.10417 28.0729 15.8229 38.7917 15.8229 38.7917 43.8958Z" fill="#C0C9E4" transform="matrix(1 0 -0 1.02041 424 193)"/></g></g></g></g></svg>