<svg width="770" height="626" xmlns="http://www.w3.org/2000/svg" xmlns:xlink="http://www.w3.org/1999/xlink" overflow="hidden"><defs><clipPath id="clip0"><path d="M255 47 1025 47 1025 673 255 673Z" fill-rule="evenodd" clip-rule="evenodd"/></clipPath><clipPath id="clip1"><path d="M539 77 587 77 587 126 539 126Z" fill-rule="evenodd" clip-rule="evenodd"/></clipPath><clipPath id="clip2"><path d="M539 77 587 77 587 126 539 126Z" fill-rule="evenodd" clip-rule="evenodd"/></clipPath><clipPath id="clip3"><path d="M539 77 587 77 587 126 539 126Z" fill-rule="evenodd" clip-rule="evenodd"/></clipPath><clipPath id="clip4"><path d="M758 303 807 303 807 352 758 352Z" fill-rule="evenodd" clip-rule="evenodd"/></clipPath><clipPath id="clip5"><path d="M758 303 807 303 807 352 758 352Z" fill-rule="evenodd" clip-rule="evenodd"/></clipPath><clipPath id="clip6"><path d="M758 303 807 303 807 352 758 352Z" fill-rule="evenodd" clip-rule="evenodd"/></clipPath><clipPath id="clip7"><path d="M803 400 852 400 852 449 803 449Z" fill-rule="evenodd" clip-rule="evenodd"/></clipPath><clipPath id="clip8"><path d="M803 400 852 400 852 449 803 449Z" fill-rule="evenodd" clip-rule="evenodd"/></clipPath><clipPath id="clip9"><path d="M803 400 852 400 852 449 803 449Z" fill-rule="evenodd" clip-rule="evenodd"/></clipPath><clipPath id="clip10"><path d="M803 497 852 497 852 546 803 546Z" fill-rule="evenodd" clip-rule="evenodd"/></clipPath><clipPath id="clip11"><path d="M803 497 852 497 852 546 803 546Z" fill-rule="evenodd" clip-rule="evenodd"/></clipPath><clipPath id="clip12"><path d="M803 497 852 497 852 546 803 546Z" fill-rule="evenodd" clip-rule="evenodd"/></clipPath><clipPath id="clip13"><path d="M803 594 852 594 852 643 803 643Z" fill-rule="evenodd" clip-rule="evenodd"/></clipPath><clipPath id="clip14"><path d="M803 594 852 594 852 643 803 643Z" fill-rule="evenodd" clip-rule="evenodd"/></clipPath><clipPath id="clip15"><path d="M803 594 852 594 852 643 803 643Z" fill-rule="evenodd" clip-rule="evenodd"/></clipPath><clipPath id="clip16"><path d="M539 303 587 303 587 352 539 352Z" fill-rule="evenodd" clip-rule="evenodd"/></clipPath><clipPath id="clip17"><path d="M539 303 587 303 587 352 539 352Z" fill-rule="evenodd" clip-rule="evenodd"/></clipPath><clipPath id="clip18"><path d="M539 303 587 303 587 352 539 352Z" fill-rule="evenodd" clip-rule="evenodd"/></clipPath><clipPath id="clip19"><path d="M584 400 633 400 633 449 584 449Z" fill-rule="evenodd" clip-rule="evenodd"/></clipPath><clipPath id="clip20"><path d="M584 400 633 400 633 449 584 449Z" fill-rule="evenodd" clip-rule="evenodd"/></clipPath><clipPath id="clip21"><path d="M584 400 633 400 633 449 584 449Z" fill-rule="evenodd" clip-rule="evenodd"/></clipPath><clipPath id="clip22"><path d="M584 497 633 497 633 546 584 546Z" fill-rule="evenodd" clip-rule="evenodd"/></clipPath><clipPath id="clip23"><path d="M584 497 633 497 633 546 584 546Z" fill-rule="evenodd" clip-rule="evenodd"/></clipPath><clipPath id="clip24"><path d="M584 497 633 497 633 546 584 546Z" fill-rule="evenodd" clip-rule="evenodd"/></clipPath><clipPath id="clip25"><path d="M584 594 633 594 633 643 584 643Z" fill-rule="evenodd" clip-rule="evenodd"/></clipPath><clipPath id="clip26"><path d="M584 594 633 594 633 643 584 643Z" fill-rule="evenodd" clip-rule="evenodd"/></clipPath><clipPath id="clip27"><path d="M584 594 633 594 633 643 584 643Z" fill-rule="evenodd" clip-rule="evenodd"/></clipPath><clipPath id="clip28"><path d="M319 303 368 303 368 352 319 352Z" fill-rule="evenodd" clip-rule="evenodd"/></clipPath><clipPath id="clip29"><path d="M319 303 368 303 368 352 319 352Z" fill-rule="evenodd" clip-rule="evenodd"/></clipPath><clipPath id="clip30"><path d="M319 303 368 303 368 352 319 352Z" fill-rule="evenodd" clip-rule="evenodd"/></clipPath><clipPath id="clip31"><path d="M365 400 413 400 413 449 365 449Z" fill-rule="evenodd" clip-rule="evenodd"/></clipPath><clipPath id="clip32"><path d="M365 400 413 400 413 449 365 449Z" fill-rule="evenodd" clip-rule="evenodd"/></clipPath><clipPath id="clip33"><path d="M365 400 413 400 413 449 365 449Z" fill-rule="evenodd" clip-rule="evenodd"/></clipPath><clipPath id="clip34"><path d="M365 497 413 497 413 546 365 546Z" fill-rule="evenodd" clip-rule="evenodd"/></clipPath><clipPath id="clip35"><path d="M365 497 413 497 413 546 365 546Z" fill-rule="evenodd" clip-rule="evenodd"/></clipPath><clipPath id="clip36"><path d="M365 497 413 497 413 546 365 546Z" fill-rule="evenodd" clip-rule="evenodd"/></clipPath><clipPath id="clip37"><path d="M365 594 413 594 413 643 365 643Z" fill-rule="evenodd" clip-rule="evenodd"/></clipPath><clipPath id="clip38"><path d="M365 594 413 594 413 643 365 643Z" fill-rule="evenodd" clip-rule="evenodd"/></clipPath><clipPath id="clip39"><path d="M365 594 413 594 413 643 365 643Z" fill-rule="evenodd" clip-rule="evenodd"/></clipPath><clipPath id="clip40"><path d="M648 190 697 190 697 239 648 239Z" fill-rule="evenodd" clip-rule="evenodd"/></clipPath><clipPath id="clip41"><path d="M648 190 697 190 697 239 648 239Z" fill-rule="evenodd" clip-rule="evenodd"/></clipPath><clipPath id="clip42"><path d="M648 190 697 190 697 239 648 239Z" fill-rule="evenodd" clip-rule="evenodd"/></clipPath></defs><g clip-path="url(#clip0)" transform="translate(-255 -47)"><path d="M617.5 131.5 617.5 214.839 636.523 214.839" stroke="#34599C" stroke-width="1.33333" stroke-miterlimit="8" fill="none" fill-rule="evenodd"/><path d="M326.5 357.5 326.5 619.123 353.676 619.123" stroke="#3D67B1" stroke-width="1.33333" stroke-miterlimit="8" fill="none" fill-rule="evenodd"/><path d="M326.5 357.5 326.5 522.083 353.676 522.083" stroke="#3D67B1" stroke-width="1.33333" stroke-miterlimit="8" fill="none" fill-rule="evenodd"/><path d="M326.5 357.5 326.5 425.043 353.676 425.043" stroke="#3D67B1" stroke-width="1.33333" stroke-miterlimit="8" fill="none" fill-rule="evenodd"/><path d="M617.718 131.5 617.718 279.155 398.5 279.155 398.5 298.178" stroke="#34599C" stroke-width="1.33333" stroke-miterlimit="8" fill="none" fill-rule="evenodd"/><path d="M545.5 357.5 545.5 619.123 572.676 619.123" stroke="#3D67B1" stroke-width="1.33333" stroke-miterlimit="8" fill="none" fill-rule="evenodd"/><path d="M545.5 357.5 545.5 522.083 572.676 522.083" stroke="#3D67B1" stroke-width="1.33333" stroke-miterlimit="8" fill="none" fill-rule="evenodd"/><path d="M545.5 357.5 545.5 425.043 572.676 425.043" stroke="#3D67B1" stroke-width="1.33333" stroke-miterlimit="8" fill="none" fill-rule="evenodd"/><path d="M618.3 131.5 618.3 298.178" stroke="#34599C" stroke-width="1.33333" stroke-miterlimit="8" fill="none" fill-rule="evenodd"/><path d="M764.5 357.5 764.5 619.123 791.676 619.123" stroke="#3D67B1" stroke-width="1.33333" stroke-miterlimit="8" fill="none" fill-rule="evenodd"/><path d="M764.5 357.5 764.5 522.083 791.676 522.083" stroke="#3D67B1" stroke-width="1.33333" stroke-miterlimit="8" fill="none" fill-rule="evenodd"/><path d="M764.5 357.5 764.5 425.043 791.676 425.043" stroke="#3D67B1" stroke-width="1.33333" stroke-miterlimit="8" fill="none" fill-rule="evenodd"/><path d="M617.5 131.5 617.5 279.155 836.718 279.155 836.718 298.178" stroke="#34599C" stroke-width="1.33333" stroke-miterlimit="8" fill="none" fill-rule="evenodd"/><text font-family="Calibri,Calibri_MSFontService,sans-serif" font-weight="400" font-size="17" transform="translate(593.877 106)">_archives</text><g clip-path="url(#clip1)"><g clip-path="url(#clip2)"><g clip-path="url(#clip3)"><path d="M14.45 18.5 39.5 18.5 39.5 16C39.5 14.9 38.6 14 37.5 14L22.5 14 17 10.35C16.65 10.15 16.3 10 15.9 10L6.5 10C5.4 10 4.5 10.9 4.5 12L4.5 36.5C4.5 36.6 10.95 20.85 10.95 20.85 11.55 19.45 12.9 18.5 14.45 18.5Z" fill="#C0C9E4" transform="matrix(1 0 -0 1.02083 539 77)"/><path d="M43.5 22.5C43.5 21.45 42.75 20.6 41.7 20.5L14.45 20.5C13.7 20.5 13.05 20.95 12.75 21.6L6 38 36.5 38 43.3 23.4C43.45 23.1 43.5 22.8 43.5 22.5L43.5 22.5Z" fill="#C0C9E4" transform="matrix(1 0 -0 1.02083 539 77)"/></g></g></g><text font-family="Calibri,Calibri_MSFontService,sans-serif" font-weight="400" font-size="17" transform="translate(813.095 332)">categories</text><g clip-path="url(#clip4)"><g clip-path="url(#clip5)"><g clip-path="url(#clip6)"><path d="M772.751 321.885 798.323 321.885 798.323 319.333C798.323 318.21 797.404 317.292 796.281 317.292L780.969 317.292 775.354 313.566C774.997 313.361 774.64 313.208 774.231 313.208L764.635 313.208C763.513 313.208 762.594 314.127 762.594 315.25L762.594 340.26C762.594 340.362 769.178 324.284 769.178 324.284 769.791 322.855 771.169 321.885 772.751 321.885Z" fill="#C0C9E4"/><path d="M802.406 325.969C802.406 324.897 801.641 324.029 800.569 323.927L772.751 323.927C771.985 323.927 771.322 324.386 771.016 325.05L764.125 341.792 795.26 341.792 802.202 326.888C802.355 326.581 802.406 326.275 802.406 325.969L802.406 325.969Z" fill="#C0C9E4"/></g></g></g><text font-family="Calibri,Calibri_MSFontService,sans-serif" font-weight="400" font-size="17" transform="translate(858.388 429)">category1.md</text><g clip-path="url(#clip7)"><g clip-path="url(#clip8)"><g clip-path="url(#clip9)"><path d="M817.292 421.438 837.708 421.438 837.708 422.458 817.292 422.458Z" fill="#C0C9E4"/><path d="M817.292 417.354 826.99 417.354 826.99 418.375 817.292 418.375Z" fill="#C0C9E4"/><path d="M817.292 425.521 837.708 425.521 837.708 426.542 817.292 426.542Z" fill="#C0C9E4"/><path d="M817.292 429.604 837.708 429.604 837.708 430.625 817.292 430.625Z" fill="#C0C9E4"/><path d="M817.292 433.688 837.708 433.688 837.708 434.708 817.292 434.708Z" fill="#C0C9E4"/><path d="M817.292 437.771 837.708 437.771 837.708 438.792 817.292 438.792Z" fill="#C0C9E4"/><path d="M812.188 404.083 812.188 444.917 842.812 444.917 842.812 415.101 831.795 404.083ZM832.102 405.835 841.061 414.793C841.063 414.795 841.063 414.799 841.061 414.801 841.06 414.802 841.059 414.802 841.058 414.802L832.094 414.802 832.094 405.838C832.094 405.835 832.096 405.833 832.099 405.833 832.1 405.833 832.102 405.834 832.102 405.835ZM813.208 443.896 813.208 405.104 831.073 405.104 831.073 415.823 841.792 415.823 841.792 443.896Z" fill="#C0C9E4"/></g></g></g><text font-family="Calibri,Calibri_MSFontService,sans-serif" font-weight="400" font-size="17" transform="translate(858.388 526)">category2.md</text><g clip-path="url(#clip10)"><g clip-path="url(#clip11)"><g clip-path="url(#clip12)"><path d="M817.292 518.438 837.708 518.438 837.708 519.458 817.292 519.458Z" fill="#C0C9E4"/><path d="M817.292 514.354 826.99 514.354 826.99 515.375 817.292 515.375Z" fill="#C0C9E4"/><path d="M817.292 522.521 837.708 522.521 837.708 523.542 817.292 523.542Z" fill="#C0C9E4"/><path d="M817.292 526.604 837.708 526.604 837.708 527.625 817.292 527.625Z" fill="#C0C9E4"/><path d="M817.292 530.688 837.708 530.688 837.708 531.708 817.292 531.708Z" fill="#C0C9E4"/><path d="M817.292 534.771 837.708 534.771 837.708 535.792 817.292 535.792Z" fill="#C0C9E4"/><path d="M812.188 501.083 812.188 541.917 842.812 541.917 842.812 512.101 831.795 501.083ZM832.102 502.835 841.061 511.793C841.063 511.795 841.063 511.799 841.061 511.801 841.06 511.802 841.059 511.802 841.058 511.802L832.094 511.802 832.094 502.838C832.094 502.835 832.096 502.833 832.099 502.833 832.1 502.833 832.102 502.834 832.102 502.835ZM813.208 540.896 813.208 502.104 831.073 502.104 831.073 512.823 841.792 512.823 841.792 540.896Z" fill="#C0C9E4"/></g></g></g><text font-family="Calibri,Calibri_MSFontService,sans-serif" font-weight="400" font-size="17" transform="translate(858.388 623)">category3.md</text><g clip-path="url(#clip13)"><g clip-path="url(#clip14)"><g clip-path="url(#clip15)"><path d="M817.292 615.438 837.708 615.438 837.708 616.458 817.292 616.458Z" fill="#C0C9E4"/><path d="M817.292 611.354 826.99 611.354 826.99 612.375 817.292 612.375Z" fill="#C0C9E4"/><path d="M817.292 619.521 837.708 619.521 837.708 620.542 817.292 620.542Z" fill="#C0C9E4"/><path d="M817.292 623.604 837.708 623.604 837.708 624.625 817.292 624.625Z" fill="#C0C9E4"/><path d="M817.292 627.688 837.708 627.688 837.708 628.708 817.292 628.708Z" fill="#C0C9E4"/><path d="M817.292 631.771 837.708 631.771 837.708 632.792 817.292 632.792Z" fill="#C0C9E4"/><path d="M812.188 598.083 812.188 638.917 842.812 638.917 842.812 609.101 831.795 598.083ZM832.102 599.835 841.061 608.793C841.063 608.795 841.063 608.799 841.061 608.801 841.06 608.802 841.059 608.802 841.058 608.802L832.094 608.802 832.094 599.838C832.094 599.835 832.096 599.833 832.099 599.833 832.1 599.833 832.102 599.834 832.102 599.835ZM813.208 637.896 813.208 599.104 831.073 599.104 831.073 609.823 841.792 609.823 841.792 637.896Z" fill="#C0C9E4"/></g></g></g><text font-family="Calibri,Calibri_MSFontService,sans-serif" font-weight="400" font-size="17" transform="translate(593.877 332)">tags</text><g clip-path="url(#clip16)"><g clip-path="url(#clip17)"><g clip-path="url(#clip18)"><path d="M14.45 18.5 39.5 18.5 39.5 16C39.5 14.9 38.6 14 37.5 14L22.5 14 17 10.35C16.65 10.15 16.3 10 15.9 10L6.5 10C5.4 10 4.5 10.9 4.5 12L4.5 36.5C4.5 36.6 10.95 20.85 10.95 20.85 11.55 19.45 12.9 18.5 14.45 18.5Z" fill="#C0C9E4" transform="matrix(1 0 -0 1.02083 539 303)"/><path d="M43.5 22.5C43.5 21.45 42.75 20.6 41.7 20.5L14.45 20.5C13.7 20.5 13.05 20.95 12.75 21.6L6 38 36.5 38 43.3 23.4C43.45 23.1 43.5 22.8 43.5 22.5L43.5 22.5Z" fill="#C0C9E4" transform="matrix(1 0 -0 1.02083 539 303)"/></g></g></g><text font-family="Calibri,Calibri_MSFontService,sans-serif" font-weight="400" font-size="17" transform="translate(639.17 429)">tag1.md</text><g clip-path="url(#clip19)"><g clip-path="url(#clip20)"><g clip-path="url(#clip21)"><path d="M598.292 421.438 618.708 421.438 618.708 422.458 598.292 422.458Z" fill="#C0C9E4"/><path d="M598.292 417.354 607.99 417.354 607.99 418.375 598.292 418.375Z" fill="#C0C9E4"/><path d="M598.292 425.521 618.708 425.521 618.708 426.542 598.292 426.542Z" fill="#C0C9E4"/><path d="M598.292 429.604 618.708 429.604 618.708 430.625 598.292 430.625Z" fill="#C0C9E4"/><path d="M598.292 433.688 618.708 433.688 618.708 434.708 598.292 434.708Z" fill="#C0C9E4"/><path d="M598.292 437.771 618.708 437.771 618.708 438.792 598.292 438.792Z" fill="#C0C9E4"/><path d="M593.188 404.083 593.188 444.917 623.812 444.917 623.812 415.101 612.795 404.083ZM613.102 405.835 622.061 414.793C622.063 414.795 622.063 414.799 622.061 414.801 622.06 414.802 622.059 414.802 622.058 414.802L613.094 414.802 613.094 405.838C613.094 405.835 613.096 405.833 613.099 405.833 613.1 405.833 613.102 405.834 613.102 405.835ZM594.208 443.896 594.208 405.104 612.073 405.104 612.073 415.823 622.792 415.823 622.792 443.896Z" fill="#C0C9E4"/></g></g></g><text font-family="Calibri,Calibri_MSFontService,sans-serif" font-weight="400" font-size="17" transform="translate(639.17 526)">tag2.md</text><g clip-path="url(#clip22)"><g clip-path="url(#clip23)"><g clip-path="url(#clip24)"><path d="M598.292 518.438 618.708 518.438 618.708 519.458 598.292 519.458Z" fill="#C0C9E4"/><path d="M598.292 514.354 607.99 514.354 607.99 515.375 598.292 515.375Z" fill="#C0C9E4"/><path d="M598.292 522.521 618.708 522.521 618.708 523.542 598.292 523.542Z" fill="#C0C9E4"/><path d="M598.292 526.604 618.708 526.604 618.708 527.625 598.292 527.625Z" fill="#C0C9E4"/><path d="M598.292 530.688 618.708 530.688 618.708 531.708 598.292 531.708Z" fill="#C0C9E4"/><path d="M598.292 534.771 618.708 534.771 618.708 535.792 598.292 535.792Z" fill="#C0C9E4"/><path d="M593.188 501.083 593.188 541.917 623.812 541.917 623.812 512.101 612.795 501.083ZM613.102 502.835 622.061 511.793C622.063 511.795 622.063 511.799 622.061 511.801 622.06 511.802 622.059 511.802 622.058 511.802L613.094 511.802 613.094 502.838C613.094 502.835 613.096 502.833 613.099 502.833 613.1 502.833 613.102 502.834 613.102 502.835ZM594.208 540.896 594.208 502.104 612.073 502.104 612.073 512.823 622.792 512.823 622.792 540.896Z" fill="#C0C9E4"/></g></g></g><text font-family="Calibri,Calibri_MSFontService,sans-serif" font-weight="400" font-size="17" transform="translate(639.17 623)">tag3.md</text><g clip-path="url(#clip25)"><g clip-path="url(#clip26)"><g clip-path="url(#clip27)"><path d="M598.292 615.438 618.708 615.438 618.708 616.458 598.292 616.458Z" fill="#C0C9E4"/><path d="M598.292 611.354 607.99 611.354 607.99 612.375 598.292 612.375Z" fill="#C0C9E4"/><path d="M598.292 619.521 618.708 619.521 618.708 620.542 598.292 620.542Z" fill="#C0C9E4"/><path d="M598.292 623.604 618.708 623.604 618.708 624.625 598.292 624.625Z" fill="#C0C9E4"/><path d="M598.292 627.688 618.708 627.688 618.708 628.708 598.292 628.708Z" fill="#C0C9E4"/><path d="M598.292 631.771 618.708 631.771 618.708 632.792 598.292 632.792Z" fill="#C0C9E4"/><path d="M593.188 598.083 593.188 638.917 623.812 638.917 623.812 609.101 612.795 598.083ZM613.102 599.835 622.061 608.793C622.063 608.795 622.063 608.799 622.061 608.801 622.06 608.802 622.059 608.802 622.058 608.802L613.094 608.802 613.094 599.838C613.094 599.835 613.096 599.833 613.099 599.833 613.1 599.833 613.102 599.834 613.102 599.835ZM594.208 637.896 594.208 599.104 612.073 599.104 612.073 609.823 622.792 609.823 622.792 637.896Z" fill="#C0C9E4"/></g></g></g><text font-family="Calibri,Calibri_MSFontService,sans-serif" font-weight="400" font-size="17" transform="translate(374.659 332)">years</text><g clip-path="url(#clip28)"><g clip-path="url(#clip29)"><g clip-path="url(#clip30)"><path d="M333.751 321.885 359.323 321.885 359.323 319.333C359.323 318.21 358.404 317.292 357.281 317.292L341.969 317.292 336.354 313.566C335.997 313.361 335.64 313.208 335.231 313.208L325.635 313.208C324.513 313.208 323.594 314.127 323.594 315.25L323.594 340.26C323.594 340.362 330.178 324.284 330.178 324.284 330.791 322.855 332.169 321.885 333.751 321.885Z" fill="#C0C9E4"/><path d="M363.406 325.969C363.406 324.897 362.641 324.029 361.569 323.927L333.751 323.927C332.985 323.927 332.322 324.386 332.016 325.05L325.125 341.792 356.26 341.792 363.202 326.888C363.355 326.581 363.406 326.275 363.406 325.969L363.406 325.969Z" fill="#C0C9E4"/></g></g></g><text font-family="Calibri,Calibri_MSFontService,sans-serif" font-weight="400" font-size="17" transform="translate(419.952 429)">2020.md</text><g clip-path="url(#clip31)"><g clip-path="url(#clip32)"><g clip-path="url(#clip33)"><path d="M14 21 34 21 34 22 14 22Z" fill="#C0C9E4" transform="matrix(1 0 -0 1.02083 365 400)"/><path d="M14 17 23.5 17 23.5 18 14 18Z" fill="#C0C9E4" transform="matrix(1 0 -0 1.02083 365 400)"/><path d="M14 25 34 25 34 26 14 26Z" fill="#C0C9E4" transform="matrix(1 0 -0 1.02083 365 400)"/><path d="M14 29 34 29 34 30 14 30Z" fill="#C0C9E4" transform="matrix(1 0 -0 1.02083 365 400)"/><path d="M14 33 34 33 34 34 14 34Z" fill="#C0C9E4" transform="matrix(1 0 -0 1.02083 365 400)"/><path d="M14 37 34 37 34 38 14 38Z" fill="#C0C9E4" transform="matrix(1 0 -0 1.02083 365 400)"/><path d="M9 4 9 44 39 44 39 14.793 28.207 4ZM28.5085 5.7155 37.2845 14.4915C37.2864 14.4935 37.2864 14.4966 37.2845 14.4986 37.2835 14.4994 37.2823 14.5 37.281 14.5L28.5 14.5 28.5 5.719C28.5 5.71625 28.5023 5.71405 28.5051 5.71405 28.5063 5.7141 28.5076 5.7146 28.5085 5.7155ZM10 43 10 5 27.5 5 27.5 15.5 38 15.5 38 43Z" fill="#C0C9E4" transform="matrix(1 0 -0 1.02083 365 400)"/></g></g></g><text font-family="Calibri,Calibri_MSFontService,sans-serif" font-weight="400" font-size="17" transform="translate(419.952 526)">2019.md</text><g clip-path="url(#clip34)"><g clip-path="url(#clip35)"><g clip-path="url(#clip36)"><path d="M14 21 34 21 34 22 14 22Z" fill="#C0C9E4" transform="matrix(1 0 -0 1.02083 365 497)"/><path d="M14 17 23.5 17 23.5 18 14 18Z" fill="#C0C9E4" transform="matrix(1 0 -0 1.02083 365 497)"/><path d="M14 25 34 25 34 26 14 26Z" fill="#C0C9E4" transform="matrix(1 0 -0 1.02083 365 497)"/><path d="M14 29 34 29 34 30 14 30Z" fill="#C0C9E4" transform="matrix(1 0 -0 1.02083 365 497)"/><path d="M14 33 34 33 34 34 14 34Z" fill="#C0C9E4" transform="matrix(1 0 -0 1.02083 365 497)"/><path d="M14 37 34 37 34 38 14 38Z" fill="#C0C9E4" transform="matrix(1 0 -0 1.02083 365 497)"/><path d="M9 4 9 44 39 44 39 14.793 28.207 4ZM28.5085 5.7155 37.2845 14.4915C37.2864 14.4935 37.2864 14.4966 37.2845 14.4986 37.2835 14.4994 37.2823 14.5 37.281 14.5L28.5 14.5 28.5 5.719C28.5 5.71625 28.5023 5.71405 28.5051 5.71405 28.5063 5.7141 28.5076 5.7146 28.5085 5.7155ZM10 43 10 5 27.5 5 27.5 15.5 38 15.5 38 43Z" fill="#C0C9E4" transform="matrix(1 0 -0 1.02083 365 497)"/></g></g></g><text font-family="Calibri,Calibri_MSFontService,sans-serif" font-weight="400" font-size="17" transform="translate(419.952 623)">2018.md</text><g clip-path="url(#clip37)"><g clip-path="url(#clip38)"><g clip-path="url(#clip39)"><path d="M14 21 34 21 34 22 14 22Z" fill="#C0C9E4" transform="matrix(1 0 -0 1.02083 365 594)"/><path d="M14 17 23.5 17 23.5 18 14 18Z" fill="#C0C9E4" transform="matrix(1 0 -0 1.02083 365 594)"/><path d="M14 25 34 25 34 26 14 26Z" fill="#C0C9E4" transform="matrix(1 0 -0 1.02083 365 594)"/><path d="M14 29 34 29 34 30 14 30Z" fill="#C0C9E4" transform="matrix(1 0 -0 1.02083 365 594)"/><path d="M14 33 34 33 34 34 14 34Z" fill="#C0C9E4" transform="matrix(1 0 -0 1.02083 365 594)"/><path d="M14 37 34 37 34 38 14 38Z" fill="#C0C9E4" transform="matrix(1 0 -0 1.02083 365 594)"/><path d="M9 4 9 44 39 44 39 14.793 28.207 4ZM28.5085 5.7155 37.2845 14.4915C37.2864 14.4935 37.2864 14.4966 37.2845 14.4986 37.2835 14.4994 37.2823 14.5 37.281 14.5L28.5 14.5 28.5 5.719C28.5 5.71625 28.5023 5.71405 28.5051 5.71405 28.5063 5.7141 28.5076 5.7146 28.5085 5.7155ZM10 43 10 5 27.5 5 27.5 15.5 38 15.5 38 43Z" fill="#C0C9E4" transform="matrix(1 0 -0 1.02083 365 594)"/></g></g></g><text font-family="Calibri,Calibri_MSFontService,sans-serif" font-weight="400" font-size="17" transform="translate(703.486 219)">archivedata.txt </text><g clip-path="url(#clip40)"><g clip-path="url(#clip41)"><g clip-path="url(#clip42)"><path d="M662.292 211.438 682.708 211.438 682.708 212.458 662.292 212.458Z" fill="#C0C9E4"/><path d="M662.292 207.354 671.99 207.354 671.99 208.375 662.292 208.375Z" fill="#C0C9E4"/><path d="M662.292 215.521 682.708 215.521 682.708 216.542 662.292 216.542Z" fill="#C0C9E4"/><path d="M662.292 219.604 682.708 219.604 682.708 220.625 662.292 220.625Z" fill="#C0C9E4"/><path d="M662.292 223.688 682.708 223.688 682.708 224.708 662.292 224.708Z" fill="#C0C9E4"/><path d="M662.292 227.771 682.708 227.771 682.708 228.792 662.292 228.792Z" fill="#C0C9E4"/><path d="M657.188 194.083 657.188 234.917 687.812 234.917 687.812 205.101 676.795 194.083ZM677.102 195.835 686.061 204.793C686.063 204.795 686.063 204.799 686.061 204.801 686.06 204.802 686.059 204.802 686.058 204.802L677.094 204.802 677.094 195.838C677.094 195.835 677.096 195.833 677.099 195.833 677.1 195.833 677.102 195.834 677.102 195.835ZM658.208 233.896 658.208 195.104 676.073 195.104 676.073 205.823 686.792 205.823 686.792 233.896Z" fill="#C0C9E4"/></g></g></g></g></svg>