<svg width="385" height="289" xmlns="http://www.w3.org/2000/svg" xmlns:xlink="http://www.w3.org/1999/xlink" overflow="hidden"><defs><clipPath id="clip0"><path d="M437 121 822 121 822 410 437 410Z" fill-rule="evenodd" clip-rule="evenodd"/></clipPath><clipPath id="clip1"><path d="M558 127 602 127 602 171 558 171Z" fill-rule="evenodd" clip-rule="evenodd"/></clipPath><clipPath id="clip2"><path d="M558 127 602 127 602 171 558 171Z" fill-rule="evenodd" clip-rule="evenodd"/></clipPath><clipPath id="clip3"><path d="M558 127 602 127 602 171 558 171Z" fill-rule="evenodd" clip-rule="evenodd"/></clipPath><clipPath id="clip4"><path d="M658 229 702 229 702 273 658 273Z" fill-rule="evenodd" clip-rule="evenodd"/></clipPath><clipPath id="clip5"><path d="M658 229 702 229 702 273 658 273Z" fill-rule="evenodd" clip-rule="evenodd"/></clipPath><clipPath id="clip6"><path d="M658 229 702 229 702 273 658 273Z" fill-rule="evenodd" clip-rule="evenodd"/></clipPath><clipPath id="clip7"><path d="M458 229 503 229 503 274 458 274Z" fill-rule="evenodd" clip-rule="evenodd"/></clipPath><clipPath id="clip8"><path d="M458 229 503 229 503 274 458 274Z" fill-rule="evenodd" clip-rule="evenodd"/></clipPath><clipPath id="clip9"><path d="M458 229 503 229 503 274 458 274Z" fill-rule="evenodd" clip-rule="evenodd"/></clipPath><clipPath id="clip10"><path d="M658 346 703 346 703 391 658 391Z" fill-rule="evenodd" clip-rule="evenodd"/></clipPath><clipPath id="clip11"><path d="M658 346 703 346 703 391 658 391Z" fill-rule="evenodd" clip-rule="evenodd"/></clipPath><clipPath id="clip12"><path d="M658 346 703 346 703 391 658 391Z" fill-rule="evenodd" clip-rule="evenodd"/></clipPath></defs><g clip-path="url(#clip0)" transform="translate(-437 -121)"><path d="M630.5 176.5 630.5 369.276 647.8 369.276" stroke="#34599C" stroke-width="1.33333" stroke-miterlimit="8" fill="none" fill-rule="evenodd"/><path d="M629.8 176.5 629.8 252.292 612.5 252.292" stroke="#34599C" stroke-width="1.33333" stroke-miterlimit="8" fill="none" fill-rule="evenodd"/><path d="M630.5 176.5 630.5 252.292 647.8 252.292" stroke="#34599C" stroke-width="1.33333" stroke-miterlimit="8" fill="none" fill-rule="evenodd"/><text font-family="Calibri,Calibri_MSFontService,sans-serif" font-weight="400" font-size="16" transform="translate(608.176 153)">_layouts</text><g clip-path="url(#clip1)"><g clip-path="url(#clip2)"><g clip-path="url(#clip3)"><path d="M571.246 143.958 594.208 143.958 594.208 141.667C594.208 140.658 593.383 139.833 592.375 139.833L578.625 139.833 573.583 136.488C573.263 136.304 572.942 136.167 572.575 136.167L563.958 136.167C562.95 136.167 562.125 136.992 562.125 138L562.125 160.458C562.125 160.55 568.037 146.113 568.037 146.113 568.588 144.829 569.825 143.958 571.246 143.958Z" fill="#C0C9E4"/><path d="M597.875 147.625C597.875 146.663 597.188 145.883 596.225 145.792L571.246 145.792C570.558 145.792 569.963 146.204 569.688 146.8L563.5 161.833 591.458 161.833 597.692 148.45C597.829 148.175 597.875 147.9 597.875 147.625L597.875 147.625Z" fill="#C0C9E4"/></g></g></g><text font-family="Calibri,Calibri_MSFontService,sans-serif" font-weight="400" font-size="16" transform="translate(707.859 247)">archive<tspan x="46.8934" y="0">-</tspan><tspan x="0" y="18">years.html</tspan></text><g clip-path="url(#clip4)"><g clip-path="url(#clip5)"><g clip-path="url(#clip6)"><path d="M673.854 258.521 668.62 253.292 673.854 248.062 675.146 249.355 671.214 253.292 675.146 257.229 673.854 258.521Z" fill="#C0C9E4"/><path d="M686.146 258.521 684.854 257.229 688.786 253.292 684.854 249.355 686.146 248.062 691.38 253.292 686.146 258.521Z" fill="#C0C9E4"/><path d="M676.93 258.481 681.315 247.9 683.008 248.602 678.623 259.183Z" fill="#C0C9E4"/><path d="M661.667 236.792 661.667 265.208 698.333 265.208 698.333 236.792ZM693.292 239.542C693.798 239.542 694.208 239.952 694.208 240.458 694.208 240.965 693.798 241.375 693.292 241.375 692.785 241.375 692.375 240.965 692.375 240.458 692.375 239.952 692.785 239.542 693.292 239.542ZM690.083 239.542C690.59 239.542 691 239.952 691 240.458 691 240.965 690.59 241.375 690.083 241.375 689.577 241.375 689.167 240.965 689.167 240.458 689.167 239.952 689.577 239.542 690.083 239.542ZM686.875 239.542C687.381 239.542 687.792 239.952 687.792 240.458 687.792 240.965 687.381 241.375 686.875 241.375 686.369 241.375 685.958 240.965 685.958 240.458 685.958 239.952 686.369 239.542 686.875 239.542ZM695.583 262.458 664.417 262.458 664.417 244.125 695.583 244.125Z" fill="#C0C9E4"/></g></g></g><text font-family="Calibri,Calibri_MSFontService,sans-serif" font-weight="400" font-size="16" transform="translate(508.493 247)">archive<tspan x="46.8933" y="0">-</tspan><tspan x="0" y="18">categories.html</tspan></text><g clip-path="url(#clip7)"><g clip-path="url(#clip8)"><g clip-path="url(#clip9)"><path d="M474.354 259.021 469.12 253.792 474.354 248.562 475.646 249.855 471.714 253.792 475.646 257.729 474.354 259.021Z" fill="#C0C9E4"/><path d="M486.646 259.021 485.354 257.729 489.286 253.792 485.354 249.855 486.646 248.562 491.88 253.792 486.646 259.021Z" fill="#C0C9E4"/><path d="M477.43 258.981 481.815 248.4 483.509 249.102 479.124 259.683Z" fill="#C0C9E4"/><path d="M462.167 237.292 462.167 265.708 498.833 265.708 498.833 237.292ZM493.792 240.042C494.298 240.042 494.708 240.452 494.708 240.958 494.708 241.465 494.298 241.875 493.792 241.875 493.285 241.875 492.875 241.465 492.875 240.958 492.875 240.452 493.285 240.042 493.792 240.042ZM490.583 240.042C491.09 240.042 491.5 240.452 491.5 240.958 491.5 241.465 491.09 241.875 490.583 241.875 490.077 241.875 489.667 241.465 489.667 240.958 489.667 240.452 490.077 240.042 490.583 240.042ZM487.375 240.042C487.881 240.042 488.292 240.452 488.292 240.958 488.292 241.465 487.881 241.875 487.375 241.875 486.869 241.875 486.458 241.465 486.458 240.958 486.458 240.452 486.869 240.042 487.375 240.042ZM496.083 262.958 464.917 262.958 464.917 244.625 496.083 244.625Z" fill="#C0C9E4"/></g></g></g><rect x="458.5" y="229.5" width="44" height="44" stroke="#FFFFFF" stroke-width="1.33333" stroke-miterlimit="8" fill="none"/><text font-family="Calibri,Calibri_MSFontService,sans-serif" font-weight="400" font-size="16" transform="translate(707.859 364)">archive<tspan x="46.8934" y="0">-</tspan><tspan x="0" y="18">tags.html</tspan></text><g clip-path="url(#clip10)"><g clip-path="url(#clip11)"><g clip-path="url(#clip12)"><path d="M674.354 376.021 669.12 370.792 674.354 365.562 675.646 366.855 671.714 370.792 675.646 374.729 674.354 376.021Z" fill="#C0C9E4"/><path d="M686.646 376.021 685.354 374.729 689.286 370.792 685.354 366.855 686.646 365.562 691.88 370.792 686.646 376.021Z" fill="#C0C9E4"/><path d="M677.43 375.981 681.815 365.4 683.508 366.102 679.123 376.683Z" fill="#C0C9E4"/><path d="M662.167 354.292 662.167 382.708 698.833 382.708 698.833 354.292ZM693.792 357.042C694.298 357.042 694.708 357.452 694.708 357.958 694.708 358.465 694.298 358.875 693.792 358.875 693.285 358.875 692.875 358.465 692.875 357.958 692.875 357.452 693.285 357.042 693.792 357.042ZM690.583 357.042C691.09 357.042 691.5 357.452 691.5 357.958 691.5 358.465 691.09 358.875 690.583 358.875 690.077 358.875 689.667 358.465 689.667 357.958 689.667 357.452 690.077 357.042 690.583 357.042ZM687.375 357.042C687.881 357.042 688.292 357.452 688.292 357.958 688.292 358.465 687.881 358.875 687.375 358.875 686.869 358.875 686.458 358.465 686.458 357.958 686.458 357.452 686.869 357.042 687.375 357.042ZM696.083 379.958 664.917 379.958 664.917 361.625 696.083 361.625Z" fill="#C0C9E4"/></g></g></g><rect x="658.5" y="346.5" width="44" height="44" stroke="#FFFFFF" stroke-width="1.33333" stroke-miterlimit="8" fill="none"/></g></svg>